<svg xmlns="http://www.w3.org/2000/svg" viewBox="0 0 512 512">
  <defs>
    <linearGradient id="grad" x1="0%" y1="0%" x2="100%" y2="100%">
      <stop offset="0%" style="stop-color:#0ea5e9;stop-opacity:1" />
      <stop offset="100%" style="stop-color:#d946ef;stop-opacity:1" />
    </linearGradient>
  </defs>
  <rect width="512" height="512" rx="100" fill="url(#grad)"/>
  <g fill="white" transform="translate(106, 106)">
    <!-- WiFi Off Icon -->
    <path d="M150 50C200 50 245 70 280 100L260 125C230 100 195 85 150 85C105 85 70 100 40 125L20 100C55 70 100 50 150 50Z" opacity="0.5"/>
    <path d="M150 100C185 100 215 115 240 140L220 165C200 145 175 135 150 135C125 135 100 145 80 165L60 140C85 115 115 100 150 100Z" opacity="0.7"/>
    <path d="M150 150C175 150 195 160 210 180L190 205C180 190 165 180 150 180C135 180 120 190 110 205L90 180C105 160 125 150 150 150Z"/>
    <circle cx="150" cy="230" r="25"/>
    <!-- Cross line -->
    <line x1="30" y1="280" x2="270" y2="40" stroke="white" stroke-width="20" stroke-linecap="round"/>
  </g>
</svg>
